<svg width="500" height="500" viewBox="0 0 500 500" fill="none" xmlns="http://www.w3.org/2000/svg">
<path d="M355.065 453.512C318.657 415.602 282.688 377.399 251.604 334.874C247.763 329.655 246.259 325.919 255.34 325.752C326.319 324.541 396.42 314.186 466.187 301.16C468.541 300.839 470.911 300.644 473.285 300.575C478.734 303.665 477.586 308.299 476.229 313.101C462.4 362.734 432.247 406.258 390.637 436.645C383.869 441.73 376.808 446.415 369.49 450.673C364.96 453.262 360.409 455.141 355.065 453.512Z" fill="#00E4E4"/>
<path d="M375.274 58.2038C360.786 108.431 341.246 156.78 320.245 204.544C319.612 205.628 318.84 206.625 317.948 207.509C315.276 206.987 314.378 205.024 313.293 203.333C274.819 145.486 231.751 91.0208 186.597 38.1838C185.511 36.8895 184.509 35.4699 183.57 34.113C186.158 27.1822 192.776 26.535 198.454 25.1363C241.647 14.3644 284.317 17.1826 326.57 30.3971C340.809 34.7894 354.453 40.9173 367.195 48.6426C371.077 51.0016 374.731 53.2771 375.274 58.2038Z" fill="#00E4E4"/>
<path d="M22.9498 237.486C62.1042 228.054 101.716 220.633 141.629 215.253C152.694 213.729 163.821 212.602 175.031 211.433C182.651 210.619 185.302 213.52 181.586 220.785C177.87 228.05 174.092 235.962 170.063 243.415C142.402 294.561 122.298 348.859 103.26 403.596C101.944 407.416 100.295 411.132 98.813 414.89C93.1347 418.125 89.8363 413.95 86.6423 410.714C72.2239 395.819 59.9557 378.984 50.1929 360.696C29.4214 322.242 19.3174 281.367 22.9498 237.486Z" fill="#00E4E4"/>
<path d="M149.561 50.1888C178.454 78.8724 204.277 110.228 228.681 142.815C233.963 149.851 238.931 157.157 243.837 164.464C245.403 166.823 248.743 169.14 246.634 172.438C245.048 174.943 241.708 174.192 239.077 174.213C219.391 174.359 199.872 176.509 180.291 178.137C135.303 181.895 90.8999 189.452 46.5594 197.573C42.2381 198.366 37.8333 198.742 33.4702 199.327C27.8755 196.717 29.5038 192.312 30.5685 187.991C38.6474 155.821 54.3253 127.597 75.3682 102.274C91.6079 82.6846 110.953 65.8929 132.631 52.5687C137.975 49.2912 143.298 46.1807 149.561 50.1888Z" fill="#0075FF"/>
<path d="M128.917 439.168C139.104 400.756 153.446 363.806 168.831 327.231C172.631 318.171 176.702 309.215 180.877 300.364C185.052 291.513 186.096 291.429 191.565 299.947C222.695 348.449 256.861 394.935 293.857 439.126C301.915 448.729 310.008 458.297 318.136 467.831C316.048 474.094 310.057 474.386 305.005 475.826C280.518 482.861 255.362 481.922 230.457 480.419C198.997 478.54 169.604 468.436 141.964 453.28C136.223 450.107 129.731 447.205 128.917 439.168Z" fill="#0075FF"/>
<path d="M409.947 210.827C410.072 200.055 417.065 193.542 428.297 193.751C438.234 193.918 444.997 200.682 444.851 210.347C444.726 221.328 436.731 229.365 426.334 228.948C415.938 228.53 409.821 221.641 409.947 210.827Z" fill="#FBFBFB"/>
<path fill-rule="evenodd" clip-rule="evenodd" d="M476.395 256.505C479.568 213.73 470.195 173.69 450.342 135.904C428.255 91.3133 394.311 59.4358 348.488 39.8124C338.176 35.3867 329.888 35.4284 320.661 42.3384C315.633 46.1125 309.969 49.0505 304.299 51.9919C301.376 53.5084 298.45 55.0258 295.61 56.6593C285.84 62.254 285.38 65.448 293.877 72.4623C307.766 83.9441 321.83 95.2519 336.067 106.386C344.042 112.607 344.459 118.327 336.693 124.903C328.427 131.903 320.285 139.022 312.269 146.259C302.582 155.068 303.146 159.014 315.108 163.899C325.88 168.408 336.735 172.583 347.591 176.759C353.728 179.138 357.194 182.625 353.853 189.576C349.866 197.864 354.271 199.701 361.619 201.1C362.375 201.244 363.134 201.386 363.894 201.53C373.734 203.385 383.865 205.294 392.683 209.596C416.272 221.078 431.825 240.91 443.683 263.874C443.806 264.11 443.928 264.347 444.051 264.583C448.15 272.478 452.091 280.071 463.118 277.882C474.961 275.525 475.684 265.943 476.393 256.539L476.395 256.505ZM442.744 166.987C442.744 174.988 436.257 181.475 428.256 181.475C420.254 181.475 413.768 174.988 413.768 166.987C413.768 158.986 420.254 152.499 428.256 152.499C436.257 152.499 442.744 158.986 442.744 166.987Z" fill="#0075FF"/>
</svg>
